<svg id="svg" version="1.1" xmlns="http://www.w3.org/2000/svg" xmlns:xlink="http://www.w3.org/1999/xlink" width="400" height="555.023923444976" viewBox="0, 0, 400,555.023923444976"><g id="svgg"><path id="path0" d="M178.947 46.360 C 175.789 47.424,171.914 49.057,170.335 49.989 C 168.756 50.921,165.642 52.478,163.416 53.448 C 158.279 55.686,145.493 69.082,145.471 72.249 C 145.462 73.565,144.662 74.641,143.693 74.641 C 142.724 74.641,141.332 77.440,140.601 80.861 C 139.869 84.282,138.471 88.076,137.494 89.292 C 135.513 91.758,135.107 136.490,136.976 146.451 C 138.105 152.473,137.269 153.718,121.987 168.759 C 106.723 183.783,36.811 251.221,31.928 255.632 C 30.264 257.135,30.021 264.989,31.010 285.297 C 31.749 300.489,32.925 350.383,33.622 396.172 C 34.319 441.962,35.005 479.567,35.148 479.739 C 35.611 480.299,69.021 482.275,107.177 483.998 C 214.195 488.832,240.567 490.146,265.356 491.883 C 302.928 494.515,308.134 494.397,308.134 490.909 C 308.134 489.330,309.375 488.038,310.892 488.038 C 315.182 488.038,315.483 486.658,317.830 456.298 C 319.043 440.597,320.820 417.847,321.778 405.742 C 322.737 393.636,324.275 372.967,325.197 359.809 C 326.120 346.651,327.357 332.871,327.948 329.187 C 332.250 302.366,333.469 253.204,329.937 248.982 C 327.945 246.602,324.756 242.788,322.849 240.509 C 311.896 227.412,304.560 218.910,299.043 212.919 C 295.622 209.203,292.811 205.638,292.797 204.995 C 292.782 204.353,287.627 198.230,281.340 191.388 C 275.053 184.545,269.897 178.335,269.883 177.586 C 269.868 176.837,266.411 172.814,262.201 168.645 L 254.545 161.066 254.545 133.192 C 254.545 101.158,252.284 88.535,243.542 71.770 C 241.895 68.612,239.685 64.301,238.631 62.190 C 236.354 57.632,223.117 47.847,219.226 47.847 C 217.723 47.847,215.962 46.986,215.311 45.933 C 213.801 43.489,186.519 43.810,178.947 46.360 M214.856 55.981 C 222.283 60.134,237.220 75.456,237.271 78.973 C 237.298 80.830,238.106 83.844,239.065 85.672 C 244.307 95.655,248.541 140.573,244.614 144.531 C 242.281 146.881,218.182 119.335,218.182 114.319 C 218.182 110.679,203.735 95.694,200.226 95.694 C 198.769 95.694,186.549 106.469,173.069 119.639 C 159.182 133.207,147.840 142.864,146.897 141.921 C 144.413 139.437,144.672 95.711,147.186 93.197 C 148.339 92.044,149.282 88.689,149.282 85.742 C 149.282 82.794,150.144 80.383,151.196 80.383 C 152.249 80.383,153.110 79.485,153.110 78.388 C 153.110 76.365,155.887 72.509,160.354 68.329 C 166.711 62.381,168.290 61.244,170.198 61.244 C 171.326 61.244,172.249 60.383,172.249 59.330 C 172.249 58.278,174.782 57.416,177.877 57.416 C 180.973 57.416,184.038 56.555,184.689 55.502 C 186.382 52.763,209.766 53.134,214.856 55.981 M202.997 141.804 C 205.315 145.059,211.833 152.456,217.481 158.242 C 223.130 164.027,227.751 169.454,227.751 170.302 C 227.751 171.150,230.365 174.734,233.560 178.266 C 247.507 193.688,250.173 196.765,257.399 205.781 C 261.601 211.022,266.768 217.095,268.883 219.275 C 270.997 221.455,275.742 226.992,279.426 231.579 C 283.110 236.166,288.062 241.879,290.431 244.275 C 292.799 246.670,294.737 249.137,294.737 249.757 C 294.737 250.377,296.890 253.207,299.522 256.045 C 305.079 262.038,305.379 267.195,302.272 303.349 C 298.226 350.432,293.579 411.664,291.683 442.866 C 290.320 465.310,289.354 466.822,277.607 464.895 C 272.818 464.110,250.813 462.969,228.708 462.360 C 206.603 461.751,185.502 460.782,181.818 460.206 C 178.134 459.630,154.450 458.319,129.187 457.293 C 103.923 456.266,78.301 454.933,72.249 454.330 L 61.244 453.234 61.244 386.728 C 61.244 350.150,60.684 308.536,59.999 294.254 L 58.753 268.285 79.616 248.059 C 148.315 181.454,140.042 186.737,147.385 204.785 C 150.707 212.948,159.872 223.354,166.984 227.037 C 179.774 233.660,223.944 226.652,237.750 215.809 L 242.105 212.388 238.080 208.986 C 235.866 207.114,233.037 203.681,231.793 201.356 C 227.739 193.783,220.278 198.687,220.157 209.004 C 220.105 213.391,219.070 214.373,213.376 215.441 C 209.680 216.135,206.184 217.465,205.608 218.399 C 204.137 220.777,172.249 220.570,172.249 218.182 C 172.249 217.129,171.348 216.268,170.248 216.268 C 165.510 216.268,153.110 199.781,153.110 193.482 C 153.110 191.402,152.249 189.167,151.196 188.517 C 146.569 185.657,150.710 179.868,172.617 158.571 C 198.951 132.970,197.340 133.859,202.997 141.804 M205.842 281.101 C 195.914 286.926,188.598 308.829,195.215 312.919 C 196.268 313.569,197.129 315.639,197.129 317.519 C 197.129 319.398,199.281 323.438,201.912 326.497 C 204.542 329.555,206.695 332.703,206.696 333.493 C 206.698 334.282,207.642 334.928,208.795 334.928 C 209.949 334.928,213.513 336.794,216.716 339.075 C 225.635 345.426,242.774 344.960,249.552 338.182 C 257.520 330.214,261.758 312.366,256.459 309.091 C 255.407 308.440,254.545 306.236,254.545 304.193 C 254.545 302.150,253.684 300.478,252.632 300.478 C 251.579 300.478,250.718 299.518,250.718 298.344 C 250.718 294.774,236.709 283.071,231.061 281.923 C 228.144 281.330,225.294 280.095,224.728 279.179 C 223.027 276.427,211.873 277.563,205.842 281.101 M137.321 286.816 C 130.653 293.618,130.709 294.093,139.286 303.554 C 143.205 307.877,148.995 314.704,152.153 318.725 C 155.311 322.746,158.971 327.114,160.287 328.431 C 161.603 329.749,162.679 331.396,162.679 332.091 C 162.679 332.787,166.355 336.939,170.848 341.319 C 175.341 345.699,181.585 352.727,184.724 356.938 C 187.863 361.148,191.292 365.517,192.344 366.647 C 193.397 367.776,197.703 372.885,201.914 378.000 C 206.124 383.116,211.797 389.943,214.520 393.172 C 217.242 396.401,221.548 401.538,224.089 404.588 C 226.629 407.637,230.646 412.119,233.014 414.548 C 235.383 416.977,237.321 419.496,237.321 420.145 C 237.321 422.361,242.782 426.794,245.512 426.794 C 250.200 426.794,260.622 415.545,258.411 412.872 C 257.344 411.582,254.101 407.828,251.202 404.529 C 248.304 401.231,242.919 394.923,239.234 390.511 C 235.550 386.099,230.598 380.440,228.230 377.934 C 225.861 375.429,223.923 372.871,223.923 372.249 C 223.923 371.627,221.986 369.112,219.617 366.661 C 217.249 364.210,213.589 359.781,211.483 356.819 C 209.378 353.857,203.995 347.641,199.522 343.005 C 195.048 338.370,191.376 334.010,191.361 333.317 C 191.347 332.624,186.191 326.459,179.904 319.617 C 173.617 312.775,168.462 306.636,168.447 305.974 C 168.433 305.312,164.115 300.255,158.852 294.737 C 153.589 289.218,149.282 283.947,149.282 283.022 C 149.282 279.481,142.357 281.677,137.321 286.816 M227.340 298.061 C 245.536 309.704,246.284 329.187,228.404 325.769 C 225.940 325.298,223.923 324.152,223.923 323.222 C 223.923 322.292,223.001 321.531,221.873 321.531 C 219.223 321.531,214.354 316.662,214.354 314.012 C 214.354 312.884,213.493 311.962,212.440 311.962 C 209.639 311.962,210.083 297.148,212.919 296.004 C 217.588 294.120,222.211 294.780,227.340 298.061 M137.799 346.963 C 127.553 351.688,124.796 358.497,126.013 376.077 C 127.556 398.374,161.653 417.855,179.113 406.414 C 208.263 387.314,169.927 332.148,137.799 346.963 M163.460 368.628 C 175.194 380.362,175.567 391.028,164.277 391.971 C 151.674 393.024,135.204 370.698,142.903 362.998 C 146.674 359.227,156.844 362.012,163.460 368.628 " stroke="none" fill="#000000" fill-rule="evenodd"></path></g></svg>